##     ## ##    ## ####  #######  ##     ## ######## 
##     ## ###   ##  ##  ##     ## ##     ## ##       
##     ## ####  ##  ##  ##     ## ##     ## ##       
##     ## ## ## ##  ##  ##     ## ##     ## ######   
##     ## ##  ####  ##  ##  ## ## ##     ## ##       
##     ## ##   ###  ##  ##    ##  ##     ## ##       
 #######  ##    ## ####  ##### ##  #######  ######## 


#############Credits To DiNGiE & Unique#############


General
Complete name : The Bourne Legacy 2012 NEW SOURCE CAM x264 AAC-UNiQUE.mp4
Format : MPEG-4
Format profile : Base Media
Codec ID : isom
File size : 2.20 GiB
Duration : 2h 7mn
Overall bit rate mode : Variable
verall bit rate : 2 464 Kbps
Encoded date : UTC 2012-08-27 09:01:16

Video
ID : 1
Format : AVC
Format/Info : Advanced Video Codec
Format profile : High@L4.1
Format settings, CABAC : Yes
Format settings, ReFrames : 3 frames
Codec ID : avc1
Codec ID/Info : Advanced Video Coding
Duration : 2h 7mn
Bit rate mode : Variable
Bit rate : 2 338 Kbps
Maximum bit rate : 40.0 Mbps
Width : 720 pixels
Height : 338 pixels
Display aspect ratio : 2.130
Frame rate mode : Constant
Frame rate : 29.970 fps
Color space : YUV
Chroma subsampling : 4:2:0
Bit depth : 8 bits
Scan type : Progressive
Bits/(Pixel*Frame) : 0.321
Stream size : 2.09 GiB (95%)
Writing library : x264 core 125 r2208 d9d2288

Audio
ID : 2
Format : AAC
Format/Info : Advanced Audio Codec
Format profile : LC
Codec ID : 40
Duration : 2h 7mn
Bit rate mode : Variable
Bit rate : 122 Kbps
Maximum bit rate : 144 Kbps
Channel(s) : 2 channels
Channel positions : Front: L R
Sampling rate : 44.1 KHz
Compression mode : Lossy
Stream size : 111 MiB (5%)
Language : English
Encoded date : UTC 2012-08-27 09:02:10

Source : NEW SOURCE 26K - Thanks! 

Storyline
Aaron Cross, a new hero, experiences life-or-death stakes that have been triggered by previous events.

iMDB: 
http://www.imdb.com/title/tt1194173

Screen Shots:
Look at the comment


#############Credits To DiNGiE & Unique#############


##     ## ##    ## ####  #######  ##     ## ######## 
##     ## ###   ##  ##  ##     ## ##     ## ##       
##     ## ####  ##  ##  ##     ## ##     ## ##       
##     ## ## ## ##  ##  ##     ## ##     ## ######   
##     ## ##  ####  ##  ##  ## ## ##     ## ##       
##     ## ##   ###  ##  ##    ##  ##     ## ##       
 #######  ##    ## ####  ##### ##  #######  ######## 